# xmcd
# 
# Track frame offsets:
#     150
#     17312
#     33417
#     50355
#     68362
#     79217
#     107807
#     123370
# 
# Disc length: 1873
# 
# Revision: 0
# Processed by: cddbd v1.5.2PL0 Copyright (c) Steve Scherf et al.
# Submitted via: fre:ac v1.0.31
# 
DISCID=57074f08
DTITLE=Max Bronski Band - München Blues
DYEAR=2018
DGENRE=Blues
TTITLE0=Muenchen Blues
TTITLE1=Wuida Hund
TTITLE2=Sanduhr
TTITLE3=Bavarian Crossroads
TTITLE4=Reigen
TTITLE5=Von oben
TTITLE6=Und dann
TTITLE7=Schneekoenig
EXTD=
EXTT0=
EXTT1=
EXTT2=
EXTT3=
EXTT4=
EXTT5=
EXTT6=
EXTT7=
PLAYORDER=
